<svg width="38" height="30" viewBox="0 0 38 30" fill="none" xmlns="http://www.w3.org/2000/svg">
<path fill-rule="evenodd" clip-rule="evenodd" d="M2.33333 0.416668C1.18275 0.416668 0.25 1.34942 0.25 2.5C0.25 3.65058 1.18275 4.58333 2.33333 4.58333H35.6667C36.8173 4.58333 37.75 3.65058 37.75 2.5C37.75 1.34942 36.8173 0.416668 35.6667 0.416668H2.33333ZM8.58333 15C8.58333 13.8494 9.51608 12.9167 10.6667 12.9167H35.6667C36.8173 12.9167 37.75 13.8494 37.75 15C37.75 16.1506 36.8173 17.0833 35.6667 17.0833H10.6667C9.51608 17.0833 8.58333 16.1506 8.58333 15ZM21.0833 27.5C21.0833 26.3494 22.016 25.4167 23.1667 25.4167H35.6667C36.8173 25.4167 37.75 26.3494 37.75 27.5C37.75 28.6506 36.8173 29.5833 35.6667 29.5833H23.1667C22.016 29.5833 21.0833 28.6506 21.0833 27.5Z" fill="white"/>
</svg>
